
        <svg xmlns="http://www.w3.org/2000/svg" xmlns:xlink="http://www.w3.org/1999/xlink" version="1.1" width="3205.4794520547944" 
        height="1002.9073125903276" viewBox="0 0 3205.4794520547944 1002.9073125903276">
			
			<g transform="scale(10.273972602739725) translate(10, 10)">
				<defs id="SvgjsDefs5587"></defs><g id="SvgjsG5588" featureKey="symbolFeature-0" transform="matrix(1.2246118547916984,0,0,1.2246118547916984,-5.237565572340043,-22.423485617213363)" fill="#80c342"><path xmlns="http://www.w3.org/2000/svg" d="M43.454,57.37c0.529,0,1.059-0.066,1.534-0.192c0.621-0.166,1.77-0.595,2.486-1.597c0.708-0.994,0.706-2.218-0.009-3.195  c-0.778-1.06-2.177-1.667-3.84-1.667c-0.53,0-1.06,0.066-1.534,0.192c-0.62,0.164-1.768,0.59-2.487,1.598  c-0.71,0.994-0.707,2.217,0.008,3.191C40.39,56.761,41.79,57.37,43.454,57.37z M40.799,53.362c0.33-0.462,0.938-0.838,1.668-1.031  c0.353-0.094,0.753-0.144,1.157-0.144c1.172,0,2.165,0.399,2.654,1.066c0.348,0.475,0.347,0.984-0.001,1.474  c-0.328,0.459-0.937,0.835-1.668,1.03c-0.352,0.094-0.752,0.143-1.155,0.143c-1.173,0-2.167-0.399-2.657-1.069  C40.455,54.365,40.456,53.844,40.799,53.362z"></path><path xmlns="http://www.w3.org/2000/svg" d="M95.723,48.382c0.022-0.125,0.012-0.25-0.027-0.366c-0.005-0.014-0.019-0.023-0.024-0.038  c-0.04-0.098-0.092-0.192-0.172-0.266l-3.955-3.667c-0.209-0.193-0.506-0.248-0.77-0.145l-0.022,0.009  c-0.066-0.106-0.136-0.196-0.204-0.269c-0.045-0.048-0.11-0.072-0.161-0.114c-0.011-0.012-0.016-0.028-0.028-0.04l-3.951-3.676  c-0.386-0.359-0.905-0.548-1.503-0.548c-0.093,0-0.182,0.009-0.271,0.017c0.025-0.862-0.296-1.38-0.571-1.664  c-0.04-0.041-0.097-0.062-0.141-0.099c-0.012-0.013-0.017-0.029-0.029-0.041c-1.222-1.139-2.447-2.278-3.67-3.413  c-0.399-0.375-0.938-0.573-1.559-0.573c-0.011,0-0.021,0.002-0.032,0.002c-0.041-0.714-0.327-1.283-0.799-1.649l-3.378-3.145  c-0.374-0.346-0.878-0.522-1.433-0.561c-0.08-0.645-0.362-1.163-0.802-1.51l-3.159-2.94c-0.662-0.615-1.703-0.77-2.752-0.426  l-1.11,0.368l-5.373-5.115c-0.193-0.184-0.471-0.249-0.727-0.168L17.202,31.508c-0.01,0.003-0.016,0.012-0.025,0.015  c-0.087,0.031-0.164,0.079-0.232,0.138c-0.018,0.016-0.036,0.03-0.052,0.048c-0.069,0.073-0.125,0.156-0.159,0.251  c-0.001,0.004-0.005,0.007-0.007,0.011c-0.004,0.012,0,0.024-0.003,0.036c-0.015,0.051-0.031,0.103-0.035,0.158l-0.354,5.919  c0,0.003,0.001,0.006,0.001,0.01c-0.001,0.022,0.006,0.044,0.007,0.066c0.003,0.063,0.009,0.125,0.027,0.184  c0.002,0.007,0.001,0.015,0.003,0.022l0.426,1.241l-3.107,1.025c-1.777,0.587-3.547,2.242-3.491,4.27l0.134,4.853  c0.002,0.087-0.192,0.295-0.431,0.377l-5.145,1.782c-0.003,0.001-0.005,0.004-0.008,0.005s-0.006,0.001-0.009,0.002  c-0.092,0.034-0.171,0.087-0.239,0.15c-0.019,0.018-0.03,0.039-0.046,0.059c-0.049,0.055-0.09,0.114-0.12,0.181  c-0.006,0.013-0.017,0.021-0.022,0.033c-0.007,0.02-0.003,0.04-0.009,0.06c-0.019,0.063-0.028,0.125-0.029,0.19  c0,0.038-0.001,0.072,0.004,0.109c0.003,0.021-0.002,0.042,0.002,0.063l0.386,1.751c0.015,0.067,0.039,0.132,0.071,0.191  l2.185,4.032c0.007,0.014,0.022,0.019,0.03,0.031c0.056,0.09,0.127,0.165,0.216,0.225c0.013,0.008,0.021,0.022,0.035,0.029  c0.003,0.002,0.005,0.006,0.008,0.008c0.11,0.061,0.233,0.092,0.356,0.092c0.084,0,0.168-0.015,0.25-0.043l0.102-0.036  c-0.018,0.06-0.025,0.12-0.027,0.185c-0.001,0.037-0.002,0.071,0.003,0.108c0.002,0.019-0.002,0.037,0.001,0.057l0.368,1.756  c0.014,0.07,0.039,0.137,0.073,0.199l2.352,4.338c0.007,0.014,0.022,0.019,0.03,0.031c0.054,0.087,0.125,0.16,0.211,0.219  c0.015,0.01,0.025,0.026,0.041,0.036c0.003,0.002,0.005,0.005,0.008,0.007c0.11,0.062,0.232,0.092,0.355,0.092  c0.083,0,0.168-0.014,0.25-0.044c0.001,0,0.002-0.002,0.003-0.002c0.001-0.001,0.003,0,0.005-0.001l0.405-0.152  c-0.018,0.018-0.026,0.041-0.042,0.061c-0.042,0.051-0.078,0.104-0.105,0.163c-0.007,0.016-0.021,0.026-0.026,0.042  c-0.007,0.018-0.003,0.037-0.008,0.056c-0.018,0.061-0.025,0.121-0.027,0.186c0,0.036-0.003,0.069,0.002,0.105  c0.002,0.018-0.003,0.033,0,0.051l0.346,1.761c0.014,0.073,0.04,0.144,0.075,0.208l2.538,4.683c0.007,0.013,0.021,0.018,0.029,0.029  c0.053,0.087,0.124,0.158,0.208,0.217c0.017,0.012,0.028,0.03,0.045,0.04c0.003,0.002,0.004,0.005,0.008,0.007  c0.11,0.062,0.232,0.092,0.355,0.092c0.082,0,0.165-0.014,0.246-0.042c0.004-0.002,0.007-0.005,0.011-0.007  c0.004-0.001,0.008,0,0.012-0.002l5.505-2.169c0.563-0.219,1.06-0.493,1.514-0.823l-0.004,0.146  c-0.004,0.118-0.271,0.404-0.595,0.532l-5.63,2.237c-0.021,0.009-0.035,0.027-0.055,0.037c-0.063,0.032-0.123,0.068-0.173,0.116  c-0.024,0.022-0.042,0.049-0.063,0.074c-0.041,0.05-0.074,0.102-0.1,0.16c-0.007,0.017-0.022,0.028-0.028,0.046  c-0.006,0.017-0.002,0.034-0.007,0.051c-0.017,0.06-0.023,0.12-0.025,0.184c-0.001,0.035-0.004,0.068,0,0.104  c0.001,0.015-0.002,0.028,0,0.043l0.319,1.754c0.014,0.076,0.04,0.15,0.077,0.219l2.75,5.071c0.007,0.013,0.021,0.018,0.028,0.029  c0.053,0.086,0.123,0.155,0.207,0.213c0.018,0.013,0.029,0.032,0.048,0.043c0.003,0.002,0.005,0.006,0.009,0.008  c0.11,0.061,0.232,0.091,0.354,0.091c0.08,0,0.161-0.013,0.24-0.04c0.008-0.003,0.013-0.009,0.021-0.012  c0.007-0.002,0.014-0.001,0.021-0.004c1.892-0.784,3.784-1.568,5.68-2.35c1.276-0.53,3.723-2.134,3.849-4.414l0.275-4.951  c0.009-0.159,0.311-0.469,0.652-0.604l3.346-1.33l5.384,8.207c0.003,0.005,0.008,0.006,0.011,0.011  c0.065,0.094,0.148,0.174,0.251,0.23c0.001,0.001,0.002,0,0.003,0.001c0.107,0.058,0.227,0.089,0.349,0.089  c0.091,0,0.182-0.017,0.271-0.052c0.003-0.001,0.004-0.003,0.007-0.005c0.002,0,0.004,0,0.007-0.001l44.486-18.698  c0.173-0.072,0.312-0.208,0.388-0.38l2.466-5.577l0.254,0.247c0.026,0.026,0.061,0.037,0.09,0.059  c0.207,0.219,0.452,0.402,0.77,0.502c0.214,0.066,0.446,0.101,0.69,0.101c0.543,0,1.062-0.168,1.401-0.309l4.188-1.732  c0.222-0.092,0.384-0.286,0.436-0.52l0.383-1.749c0.001-0.004-0.002-0.009-0.001-0.013S95.722,48.386,95.723,48.382z M93.655,48.006  L92.47,48.49l-1.672,0.682l0.015-0.224l0.227-3.366L93.655,48.006z M85.407,40.886l2.491,2.319  c-0.112,0.035-0.214,0.072-0.304,0.106l-1.218,0.479l-2.82-2.686l0.54-0.206c0.286-0.108,0.573-0.167,0.808-0.167  C85.24,40.731,85.365,40.848,85.407,40.886z M78.149,54.242L39.815,69.948l0.132-5.873l30.959-12.204l14.924-5.882l0.263,4.999  L78.149,54.242z M28.861,60.326l0.02,0.03l-2.161,0.822c-0.513,0.196-1.109,0.526-1.682,0.952l0.001-0.036  c0.005-0.148,0.276-0.43,0.587-0.547L28.861,60.326z M14.027,48.768c-0.021-1.266,1.29-2.471,2.569-2.905l4.528-1.538l-0.004,0.253  l-0.003,0.169l-1.129,0.387c-0.001,0-0.002,0.002-0.004,0.002l-3.563,1.223c-0.711,0.244-1.474,0.923-1.466,1.837l0.005,0.725  c-0.012,0.016-0.02,0.032-0.031,0.048c-0.118,0.157-0.223,0.318-0.319,0.486c-0.02,0.035-0.038,0.07-0.057,0.105  c-0.085,0.159-0.161,0.321-0.224,0.489c-0.025,0.065-0.042,0.131-0.063,0.197c-0.042,0.137-0.086,0.273-0.113,0.415  c-0.042,0.22-0.067,0.439-0.065,0.656l0.04,3.494c-0.465,0.471-0.974,0.79-1.621,1.021l-4.396,1.581l-0.047-0.223L8.048,57.11  l4.632-1.648c0.704-0.251,1.453-0.927,1.436-1.816L14.027,48.768z M69.786,27.81l0.256-0.086c0.01-0.003,0.019-0.004,0.028-0.007  c0.112-0.036,0.223-0.065,0.33-0.083c0.039-0.007,0.076-0.007,0.115-0.011c0.071-0.008,0.144-0.016,0.21-0.015  c0.145,0.002,0.26,0.024,0.36,0.058c0.05,0.017,0.091,0.043,0.134,0.068c0.248,0.144,0.338,0.387,0.358,0.616l-0.634,0.219  c-0.22-0.305-0.58-0.489-1.013-0.489c-0.019,0-0.036,0-0.055,0.001l-0.233-0.221L69.786,27.81z M75.653,32.983  c0.126-0.045,0.251-0.079,0.371-0.102c0.114-0.021,0.224-0.031,0.329-0.033c0.007,0,0.015-0.002,0.022-0.002  c0.014,0,0.023,0.002,0.036,0.003c0.095,0.003,0.185,0.013,0.265,0.034c0.006,0.002,0.012,0.003,0.018,0.005  c0.087,0.025,0.164,0.061,0.227,0.109c0.01,0.007,0.021,0.009,0.031,0.016c0.188,0.158,0.225,0.408,0.225,0.655v0.14l-0.57,0.206  c-0.19-0.406-0.593-0.661-1.101-0.661c-0.028,0-0.057,0.001-0.085,0.002l-0.223-0.211L75.653,32.983z M82.063,38.508  c0.045-0.009,0.085-0.01,0.129-0.016c0.081-0.012,0.162-0.024,0.238-0.025c0.147-0.001,0.27,0.025,0.376,0.067  c0.072,0.026,0.148,0.049,0.201,0.104c0.142,0.146,0.163,0.407,0.157,0.603l-0.014,0.447l-0.421,0.161l-0.098,0.037  c-0.059-0.249-0.182-0.423-0.29-0.534c-0.218-0.223-0.526-0.346-0.869-0.346c-0.038,0-0.075,0.001-0.113,0.004l-0.207-0.196  l0.516-0.193C81.802,38.571,81.934,38.534,82.063,38.508z M87.549,46.667l-0.109,1.958l-0.099-1.876L87.549,46.667z M11.887,64.348  l-0.06-0.296l4.809-1.79c0.708-0.265,1.47-0.951,1.468-1.832l-0.001-4.914c0-1.424,1.59-2.631,2.719-3.032l4.661-1.66l-0.016,0.425  l-1.196,0.43h0L20.6,52.998c-0.718,0.255-1.494,0.945-1.503,1.858l-0.012,1.116c-0.231,0.316-0.406,0.668-0.545,1.035  c-0.022,0.059-0.045,0.117-0.064,0.176c-0.041,0.127-0.078,0.254-0.105,0.386c-0.049,0.224-0.083,0.446-0.085,0.665  c0,0.002,0,0.003,0,0.004l-0.001,0.159l-0.021,3.013c-0.518,0.569-1.095,0.954-1.84,1.232L11.887,64.348z M25.118,49.394  l-4.79,1.705c-1.836,0.654-3.695,2.381-3.695,4.418l0.001,4.915c0,0.101-0.234,0.35-0.512,0.453l-4.8,1.786l-0.6-1.099l-1.051-1.928  l4.495-1.627c0.705-0.258,1.458-0.938,1.448-1.824l-0.057-4.892c0-0.003,0.001-0.006,0.001-0.009  c-0.001-0.144,0.022-0.283,0.051-0.421c0.029-0.125,0.069-0.252,0.123-0.379c0.002-0.005,0.004-0.011,0.006-0.017  c0.059-0.138,0.131-0.275,0.216-0.412c0.001-0.002,0.003-0.005,0.004-0.007c0.077-0.122,0.167-0.241,0.263-0.358  c0.545-0.642,1.324-1.132,1.962-1.351l3.212-1.111l1.245-0.428c0,0,0.001-0.001,0.001-0.001l0.588-0.204l1.538,2.274L25.118,49.394z   M20.366,68.228l-4.958,1.936l-0.918-1.684l-0.923-1.694c1.557-0.589,3.114-1.18,4.667-1.77c0.712-0.267,1.481-0.956,1.487-1.837  l0.01-1.486v-0.001l0.023-3.441c0.007-0.655,0.404-1.255,0.64-1.555c0.003-0.004,0.004-0.009,0.007-0.013  c0.58-0.71,1.44-1.262,2.133-1.514l5.21-1.887l2.11,3.122l-4.98,1.861c-1.518,0.566-3.793,2.234-3.839,4.51l-0.096,4.945  C20.936,67.834,20.68,68.106,20.366,68.228z M32.002,59.167l-0.319-0.478l-0.072-0.107l0.107-1.771l0,0v-0.001  c0.002-0.033-0.008-0.065-0.01-0.099c-0.002-0.028-0.003-0.055-0.008-0.082c-0.009-0.046-0.023-0.089-0.041-0.133  c-0.01-0.025-0.021-0.048-0.033-0.072c-0.011-0.021-0.016-0.043-0.029-0.063c-0.001-0.002-0.001-0.005-0.002-0.007l-2.954-4.371  c-0.167-0.246-0.461-0.355-0.746-0.3c-0.038,0.008-0.075,0.007-0.112,0.021l-0.614,0.223l-0.244-0.365l0.067-1.766l0,0v0  c0.001-0.029-0.008-0.057-0.01-0.085c-0.002-0.027-0.004-0.053-0.009-0.08c-0.01-0.049-0.025-0.096-0.044-0.143  c-0.01-0.023-0.019-0.045-0.031-0.067c-0.011-0.021-0.017-0.044-0.03-0.064l-2.733-4.042c-0.042-0.062-0.093-0.111-0.148-0.156  c-0.007-0.006-0.012-0.015-0.019-0.02c-0.191-0.145-0.447-0.19-0.682-0.107l-0.585,0.202l-0.117-0.175l0.031-1.752  c0-0.025-0.008-0.049-0.01-0.074c-0.002-0.025-0.005-0.048-0.01-0.073c-0.01-0.054-0.026-0.105-0.048-0.155  c-0.01-0.021-0.018-0.042-0.03-0.062c-0.01-0.02-0.016-0.041-0.028-0.06l-2.535-3.752c-0.046-0.068-0.102-0.126-0.165-0.174  c-0.126-0.095-0.279-0.147-0.437-0.148c-0.079-0.001-0.159,0.011-0.238,0.036l-0.338,0.112l-0.221,0.073l-0.737-1.103l0.212-3.556  l20.455,29.424l-0.11,4.915l-1.684-2.523l0.068-0.792l0.084-0.981l0,0V64.41c0.003-0.038-0.007-0.075-0.01-0.113  c-0.002-0.029-0.001-0.058-0.007-0.087c-0.008-0.042-0.022-0.081-0.038-0.121c-0.01-0.026-0.021-0.05-0.034-0.075  c-0.013-0.025-0.019-0.054-0.035-0.077l-3.203-4.738c-0.143-0.213-0.382-0.328-0.626-0.322c-0.082,0.002-0.164,0.017-0.243,0.047  L32.002,59.167z M79.22,35.138c0.727,0.674,1.453,1.349,2.179,2.024c-0.09,0.027-0.172,0.056-0.244,0.083l-1.188,0.443l-2.531-2.41  l0.222-0.081l0.254-0.092c0.003-0.001,0.007-0.002,0.01-0.003c0.258-0.092,0.521-0.144,0.742-0.144  C79.029,34.959,79.171,35.092,79.22,35.138z M75.348,31.538c-0.067,0.021-0.13,0.041-0.187,0.061l-1.158,0.412l-0.965-0.918  l-1.306-1.243l0.426-0.146c0.54-0.185,1.04-0.166,1.297,0.072L75.348,31.538z M66.406,24.777l0.363-0.121  c0.526-0.174,1.025-0.14,1.29,0.106L69.7,26.29c-0.043,0.013-0.087,0.027-0.131,0.042l-1.13,0.383l-0.423-0.403L66.406,24.777z   M59.125,19.877l8.624,8.209c0,0,0,0,0,0l0.038,0.036l7.718,7.347l0,0c0.005,0.004,0.048,0.047,0.053,0.052  c0.001,0,0.001,0.002,0.002,0.002l3.727,3.546c0,0,0,0,0.001,0v0l0.271,0.257l1.857,1.768c0.001,0.001,0.001,0.002,0.002,0.003  l0.276,0.264c0.001,0,0.002,0.001,0.003,0.001c0,0.001,0,0.002,0.001,0.002l3.472,3.302L39.495,62.674L18.596,32.61L59.125,19.877z   M10.382,51.521c0.703-0.24,1.447-0.909,1.421-1.807l-0.134-4.852c-0.034-1.249,1.236-2.421,2.483-2.833l3.811-1.257  c0.001-0.001,0.003,0,0.005-0.001l0.343-0.114l0.734-0.242l1.685,2.494l-4.606,1.564c-1.798,0.61-3.601,2.291-3.566,4.323  l0.089,4.88c0.001,0.092-0.208,0.314-0.46,0.404l-4.647,1.653l-1.48-2.714L10.382,51.521z M20.639,69.985l-4.68,1.844l-0.053-0.283  l4.992-1.949c0.715-0.277,1.492-0.975,1.508-1.849l0.096-4.944c0.03-1.449,1.705-2.721,2.885-3.161l4.796-1.792l-0.018,0.3  l-0.007,0.114l-1.267,0.478c-0.001,0.001-0.002,0.002-0.003,0.002l-3.782,1.429c-0.72,0.271-1.507,0.974-1.537,1.873l-0.051,1.649  c-0.068,0.102-0.133,0.214-0.197,0.327c-0.044,0.079-0.083,0.159-0.123,0.241c-0.076,0.156-0.142,0.327-0.199,0.51  c-0.025,0.08-0.048,0.16-0.068,0.243c-0.041,0.173-0.067,0.362-0.084,0.561c-0.004,0.051-0.021,0.098-0.022,0.149l-0.002,0.078  c0,0.001,0,0.001,0,0.002l-0.038,1.334l-0.038,1.334C22.169,69.176,21.511,69.646,20.639,69.985z M22.632,72.573  c0.55-0.218,1.489-0.853,1.522-1.854l0.056-1.96v-0.001l0.072-2.556l0.012-0.435c0.005-0.17,0.037-0.338,0.084-0.503  c0.006-0.022,0.012-0.045,0.02-0.067c0.041-0.127,0.098-0.25,0.159-0.372c0.078-0.146,0.168-0.298,0.288-0.465  c0.002-0.004,0.003-0.008,0.006-0.012c0.611-0.832,1.607-1.498,2.393-1.799l3.009-1.146c0.002-0.001,0.004,0,0.006-0.001  l1.026-0.392l1.339-0.51l2.364,3.496L29.8,66.038c-1.551,0.611-3.894,2.344-3.992,4.608l-0.213,4.963  c-0.005,0.124-0.29,0.425-0.633,0.564l-5.131,2.103l-0.961-1.764l-1.095-2.009L22.632,72.573z M29.999,67.947  c-0.726,0.285-1.53,0.999-1.579,1.889l-0.275,4.95c-0.075,1.354-1.768,2.65-2.944,3.139c-1.612,0.664-3.222,1.331-4.832,1.997  l-0.024-0.141l-0.021-0.119l5.193-2.128c0.09-0.036,0.181-0.08,0.271-0.129c0.633-0.343,1.242-0.979,1.273-1.733l0.213-4.962  c0.064-1.472,1.83-2.818,3.063-3.305l4.938-1.94l-0.034,0.398L34.647,66.1L29.999,67.947z M35.279,67.43l0.375-0.149l2.705,4.053  l0.127,0.729l0.061,0.35L35.279,67.43z M83.815,56.524L40.448,74.753l-0.052-0.295l-0.515-2.948l45.044-18.456l0.52-0.213  L83.815,56.524z M90.149,51.051c-0.432,0.179-0.847,0.24-1.09,0.163c-0.087-0.026-0.288-0.09-0.263-0.544l0.243-4.351  c0.026-0.451-0.148-0.737-0.3-0.898c-0.095-0.1-0.212-0.173-0.34-0.23c-0.057-0.026-0.119-0.038-0.182-0.055  c-0.076-0.021-0.151-0.038-0.233-0.044c-0.036-0.003-0.067-0.02-0.104-0.02c-0.059,0-0.12,0.011-0.181,0.019  c-0.019,0.002-0.037,0.003-0.056,0.005c-0.129,0.02-0.258,0.05-0.385,0.1l-0.008-0.136l-0.002-0.033l0.166-0.065l0.717-0.281  c0.142-0.056,0.281-0.097,0.416-0.127c0.048-0.011,0.09-0.013,0.135-0.021c0.086-0.014,0.171-0.026,0.251-0.028  c0.085-0.002,0.166,0.001,0.237,0.014c0.008,0.001,0.015,0.001,0.023,0.002c0.072,0.015,0.129,0.043,0.18,0.075  c0.033,0.018,0.074,0.023,0.099,0.049c0.094,0.101,0.136,0.302,0.117,0.569l-0.293,4.362c-0.028,0.44,0.143,0.721,0.29,0.878  c0.093,0.099,0.207,0.171,0.332,0.227c0.053,0.024,0.109,0.035,0.166,0.05c0.079,0.022,0.157,0.04,0.242,0.046  c0.033,0.002,0.061,0.018,0.095,0.018c0.057,0,0.116-0.012,0.174-0.019c0.023-0.002,0.046-0.004,0.069-0.007  c0.13-0.021,0.262-0.053,0.392-0.106l2.87-1.177L90.149,51.051z"></path></g><g id="SvgjsG5589" featureKey="nameFeature-0" transform="matrix(1.8969031433848107,0,0,1.8969031433848107,128.9649549253586,-14.109210827899773)" fill="#80c342"><path d="M1.6 28.32 c0 6.28 5.32 11.68 12.08 11.68 c2.04 0 3.96 -0.44 5.72 -1.32 l0 1.32 l6.36 0 l-0.04 -23.12 l-6.48 0 l0 1.04 c-1.72 -0.84 -3.6 -1.24 -5.56 -1.24 c-6.76 0 -12.08 5.4 -12.08 11.64 z M17.68 32.28 c-1.08 1.04 -2.4 1.64 -4 1.64 c-3.16 0 -5.6 -2.64 -5.6 -5.6 c0 -2.92 2.44 -5.56 5.6 -5.56 c1.6 0 2.92 0.56 4 1.6 c0.68 0.68 1.56 2.12 1.56 2.96 l0 2.04 c0 0.84 -0.88 2.2 -1.56 2.92 z M28.875999999999998 36.48 c2.32 2.2 5.08 3.44 8.4 3.44 c6.16 0 11.24 -4.4 11.96 -10.08 l0.04 -0.44 l-6.52 0 l-0.08 0.32 c-0.56 2.44 -2.72 4.08 -5.4 4.08 c-3.2 0 -5.52 -2.52 -5.52 -5.52 c0 -2.96 2.32 -5.48 5.52 -5.48 c2.4 0 4.36 1.28 5.2 3.36 l0.08 0.24 l6.64 0 l-0.08 -0.44 c-1 -5.32 -6.12 -9.28 -11.84 -9.28 c-6.68 0 -12 5.44 -12 11.6 c0 3.2 1.2 5.96 3.6 8.2 z  M48.791999999999994 28.36 c0 -6.16 5.24 -11.52 11.96 -11.52 c6.68 0 11.92 5.36 11.92 11.52 c0 0.84 -0.08 1.64 -0.24 2.4 l-16.68 0.04 c0.88 1.8 2.72 3.08 5 3.08 c1.56 0 2.96 -0.64 3.92 -1.6 l7.28 0 c-1.64 4.36 -6 7.64 -11.2 7.64 c-6.72 0 -11.96 -5.2 -11.96 -11.4 l0 -0.16 z M55.95199999999999 25.6 l-0.2 0.56 l10.12 0 l-0.32 -0.56 c-0.96 -1.6 -2.68 -2.72 -4.8 -2.72 s-3.88 1.12 -4.8 2.72 z M72.18799999999999 16.84 l0 23.16 l6.36 0 l0.08 -12.08 c0.04 -2.96 2.44 -5.44 5.6 -5.44 l1.68 0 l0.04 -6.08 l-1.72 0 c-1.96 0 -3.88 0.4 -5.6 1.28 l0 -0.84 l-6.44 0 z"></path></g>
			</g>
		</svg>
	